<svg xmlns="http://www.w3.org/2000/svg" viewBox="0 0 64 64">
  <g fill="#8D4E38">
    <path d="M12,32c0-2.8-0.5-5.3-1.6-7.6c-1.2-2.4-3-4.3-5.3-5.5l1.4-2.4c1.8,1,3.3,2.4,4.4,4.3c1.1,1.8,1.7,3.9,2,6.3 c1.1-1.6,2.6-2.8,4.4-3.5l1.1,2.6c-2.4,1-3.9,2.8-4.7,5.5c0.8,2.7,2.4,4.6,4.7,5.5l-1.1,2.6c-1.9-0.7-3.3-1.9-4.4-3.5 c-0.3,2.3-0.9,4.4-2,6.3c-1.1,1.8-2.6,3.3-4.4,4.3l-1.4-2.4c2.3-1.2,4.1-3.1,5.3-5.5C11.5,37.3,12,34.8,12,32z"/>
    <path d="M57.5,16.5c-2.3,1.2-4.1,3.1-5.3,5.5c-1.1,2.3-1.6,4.9-1.6,7.6c0,2.8,0.5,5.3,1.6,7.6c1.2,2.4,3,4.3,5.3,5.5l-1.4,2.4 c-1.8-1-3.3-2.4-4.4-4.3c-1.1-1.8-1.7-3.9-2-6.3c-1.1,1.6-2.6,2.8-4.4,3.5l-1.1-2.6c2.4-1,3.9-2.8,4.7-5.5 c-0.8-2.7-2.4-4.6-4.7-5.5l1.1-2.6c1.9,0.7,3.3,1.9,4.4,3.5c0.3-2.3,0.9-4.4,2-6.3c1.1-1.8,2.6-3.3,4.4-4.3L57.5,16.5z"/>
    <text x="32" y="38" font-family="sans-serif" font-size="18" font-weight="bold" text-anchor="middle">CVG</text>
  </g>
</svg>